<svg width="404" height="246" viewBox="0 0 202 123" fill="#16A085"  xmlns="http://www.w3.org/2000/svg">
<path d="M156.8 7.08H119.88C117.49 7.08 115.31 7.49 113.34 8.3C111.36 9.12 109.53 10.36 107.86 12.04L107.87 12.05C107.19 12.73 106.59 13.43 106.05 14.15C103.03 14.27 100.13 14.72 97.34 15.5C97.42 15.28 97.51 15.06 97.6 14.85C98.79 11.97 100.54 9.37 102.87 7.05L102.88 7.06L102.89 7.05C105.22 4.72 107.82 2.97 110.68 1.79C113.52 0.59 116.59 0 119.88 0H136.61H173.53C176.81 0 179.89 0.59 182.76 1.77C185.64 2.96 188.24 4.71 190.56 7.03L190.55 7.04C192.89 9.38 194.64 11.98 195.82 14.83C197 17.7 197.59 20.77 197.59 24.06V24.15H190.51V24.06C190.51 21.67 190.1 19.49 189.29 17.52C188.47 15.54 187.23 13.71 185.56 12.04L185.55 12.03L185.54 12.04C183.85 10.35 182.03 9.11 180.06 8.3C178.09 7.49 175.9 7.08 173.52 7.08H156.8ZM177.56 39.94H200.63V45.53L188.06 58.31H201.39V64.83H176.6V58.64L188.57 46.47H177.56V39.94ZM162.98 30.5H172.52V36.97H162.98V30.5ZM162.98 39.94H172.52V64.83H162.98V39.94ZM156.84 64.83H147.93V60.82C146.6 62.47 145.27 63.65 143.93 64.35C142.58 65.05 140.93 65.4 138.96 65.4C136.34 65.4 134.29 64.62 132.8 63.04C131.31 61.47 130.57 59.05 130.57 55.78V39.94H140.16V53.65C140.16 55.21 140.45 56.32 141.02 56.98C141.6 57.64 142.4 57.96 143.44 57.96C144.57 57.96 145.49 57.52 146.22 56.65C146.94 55.77 147.3 54.2 147.3 51.93V39.93H156.84V64.83ZM121.84 59.79C123.16 60.71 124.02 61.29 124.43 61.52C125.03 61.86 125.85 62.26 126.88 62.72L123.95 68.66C122.47 67.94 121 67.09 119.55 66.1C118.1 65.11 117.08 64.36 116.51 63.87C114.17 64.88 111.24 65.4 107.7 65.4C102.48 65.4 98.37 64.04 95.35 61.32C91.78 58.12 90 53.6 90 47.78C90 42.13 91.56 37.74 94.68 34.61C97.8 31.48 102.14 29.92 107.74 29.92C113.44 29.92 117.83 31.45 120.93 34.51C124.03 37.56 125.58 41.94 125.58 47.63C125.58 52.7 124.33 56.75 121.84 59.79ZM113.71 54.35C114.56 52.84 114.98 50.58 114.98 47.56C114.98 44.1 114.33 41.63 113.05 40.14C111.76 38.66 109.98 37.92 107.71 37.92C105.59 37.92 103.88 38.68 102.57 40.19C101.25 41.7 100.6 44.07 100.6 47.28C100.6 51.03 101.24 53.66 102.52 55.17C103.81 56.68 105.56 57.44 107.79 57.44C108.51 57.44 109.19 57.37 109.83 57.23C108.93 56.37 107.53 55.56 105.6 54.79L107.26 50.98C108.2 51.15 108.94 51.36 109.46 51.61C109.99 51.86 111.01 52.51 112.54 53.58C112.9 53.83 113.29 54.09 113.71 54.35ZM104.21 81.07C105.02 82.95 106.24 84.69 107.85 86.31L108.01 86.48C109.64 88.06 111.42 89.26 113.35 90.05C115.32 90.86 117.5 91.27 119.88 91.27H135.74C137.7 91.27 139.28 92.86 139.28 94.81C139.28 95.23 139.21 95.64 139.07 96.02C138.49 98.26 137.82 100.46 137.08 102.6C136.3 104.85 135.45 107.02 134.52 109.09C134.12 110.02 133.66 110.93 133.15 111.83C136.22 110.44 139.1 108.86 141.8 107.08H141.81L141.8 107.07C144.78 105.12 147.53 102.96 150.07 100.58C152.64 98.17 154.98 95.54 157.11 92.71C157.8 91.79 158.86 91.3 159.93 91.3V91.29H173.54C175.92 91.29 178.1 90.88 180.07 90.07C182.06 89.25 183.9 88 185.58 86.33C187.25 84.66 188.49 82.83 189.31 80.85L189.39 80.65H196.81C196.55 81.64 196.23 82.6 195.84 83.54C194.66 86.4 192.9 89.01 190.56 91.35C188.22 93.67 185.62 95.43 182.76 96.61C179.9 97.79 176.83 98.39 173.55 98.39H161.65C159.56 101.04 157.31 103.49 154.9 105.75C152.04 108.44 148.96 110.87 145.67 113.02L145.66 113.01C142.35 115.19 138.82 117.1 135.09 118.73C131.36 120.36 127.39 121.72 123.2 122.81C121.96 123.13 120.58 122.76 119.67 121.73C118.38 120.27 118.52 118.04 119.97 116.75C121.84 115.09 123.43 113.42 124.75 111.74L124.9 111.53C126.23 109.81 127.28 108.06 128.05 106.3L128.06 106.27C128.93 104.33 129.72 102.35 130.41 100.34C130.63 99.7 130.85 99.05 131.06 98.39H119.88C116.6 98.39 113.53 97.79 110.67 96.61C107.89 95.46 105.36 93.77 103.07 91.55C102.99 91.49 102.92 91.42 102.85 91.35C100.53 89.03 98.77 86.43 97.59 83.55C97.07 82.29 96.67 80.99 96.37 79.64C98.85 80.36 101.46 80.85 104.21 81.07Z" fill="#16A085"/>
<path d="M19.3636 53.5455V38.8182H28.7727V65H19.8409V60.0227H19.5682C19 61.6932 18.0057 63 16.5852 63.9432C15.1648 64.875 13.4773 65.3409 11.5227 65.3409C9.69318 65.3409 8.09091 64.9205 6.71591 64.0795C5.35227 63.2386 4.28977 62.0795 3.52841 60.6023C2.77841 59.125 2.39773 57.4318 2.38636 55.5227V38.8182H11.7955V53.5455C11.8068 54.8409 12.1364 55.858 12.7841 56.5966C13.4432 57.3352 14.3636 57.7045 15.5455 57.7045C16.3295 57.7045 17.0057 57.5398 17.5739 57.2102C18.1534 56.8693 18.5966 56.392 18.9034 55.7784C19.2216 55.1534 19.375 54.4091 19.3636 53.5455ZM57.4901 47.3409H48.831C48.7855 46.8068 48.598 46.3466 48.2685 45.9602C47.9389 45.5739 47.5128 45.2784 46.9901 45.0739C46.4787 44.858 45.9105 44.75 45.2855 44.75C44.4787 44.75 43.7855 44.8977 43.206 45.1932C42.6264 45.4886 42.3423 45.9091 42.3537 46.4545C42.3423 46.8409 42.5071 47.1989 42.848 47.5284C43.2003 47.858 43.8764 48.1136 44.8764 48.2955L50.1946 49.25C52.8764 49.7386 54.8707 50.5625 56.1776 51.7216C57.4957 52.8693 58.1605 54.4091 58.1719 56.3409C58.1605 58.2045 57.6037 59.8239 56.5014 61.1989C55.4105 62.5625 53.9162 63.6193 52.0185 64.3693C50.1321 65.108 47.9787 65.4773 45.5582 65.4773C41.5582 65.4773 38.4276 64.6591 36.1662 63.0227C33.9162 61.3864 32.6605 59.2273 32.3991 56.5455H41.7401C41.8651 57.375 42.2741 58.017 42.9673 58.4716C43.6719 58.9148 44.5582 59.1364 45.6264 59.1364C46.4901 59.1364 47.2003 58.9886 47.7571 58.6932C48.3253 58.3977 48.6151 57.9773 48.6264 57.4318C48.6151 56.9318 48.3651 56.5341 47.8764 56.2386C47.3991 55.9432 46.6491 55.7045 45.6264 55.5227L40.9901 54.7045C38.3196 54.2386 36.3196 53.3523 34.9901 52.0455C33.6605 50.7386 33.0014 49.0568 33.0128 47C33.0014 45.1818 33.4787 43.642 34.4446 42.3807C35.4219 41.108 36.8139 40.142 38.6207 39.483C40.4389 38.8125 42.5923 38.4773 45.081 38.4773C48.8651 38.4773 51.848 39.2614 54.0298 40.8295C56.223 42.3977 57.3764 44.5682 57.4901 47.3409ZM74.3224 65.4773C71.527 65.4773 69.1179 64.9432 67.0952 63.875C65.0838 62.7955 63.5327 61.25 62.4418 59.2386C61.3622 57.2159 60.8224 54.7955 60.8224 51.9773C60.8224 49.2727 61.3679 46.9091 62.4588 44.8864C63.5497 42.8636 65.0895 41.2898 67.0781 40.1648C69.0668 39.0398 71.4134 38.4773 74.1179 38.4773C76.0952 38.4773 77.8849 38.7841 79.4872 39.3977C81.0895 40.0114 82.4588 40.9034 83.5952 42.0739C84.7315 43.233 85.6065 44.642 86.2202 46.3011C86.8338 47.9602 87.1406 49.8295 87.1406 51.9091V54.0909H63.7543V48.9091H78.4815C78.4702 48.1591 78.277 47.5 77.902 46.9318C77.5384 46.3523 77.044 45.9034 76.419 45.5852C75.8054 45.2557 75.1065 45.0909 74.3224 45.0909C73.5611 45.0909 72.8622 45.2557 72.2259 45.5852C71.5895 45.9034 71.0781 46.3466 70.6918 46.9148C70.3168 47.483 70.1179 48.1477 70.0952 48.9091V54.5C70.0952 55.3409 70.2713 56.0909 70.6236 56.75C70.9759 57.4091 71.4815 57.9261 72.1406 58.3011C72.7997 58.6761 73.5952 58.8636 74.527 58.8636C75.1747 58.8636 75.7656 58.7727 76.2997 58.5909C76.8452 58.4091 77.3111 58.1477 77.6974 57.8068C78.0838 57.4545 78.3679 57.0341 78.5497 56.5455H87.1406C86.8452 58.3636 86.1463 59.9432 85.044 61.2841C83.9418 62.6136 82.4815 63.6477 80.6634 64.3864C78.8565 65.1136 76.7429 65.4773 74.3224 65.4773Z" fill="#16A085"/>
</svg>
